#N canvas 472 53 865 354 12;
#X obj 297 193 mrpeach/packOSC;
#X obj 297 219 mrpeach/udpsend;
#X msg 583 52 disconnect;
#X obj 584 11 tgl 15 0 empty empty empty 17 7 0 10 #fcfcfc #000000
#000000 0 1;
#X obj 584 31 sel 0;
#X msg 298 89 send /app/quit 1;
#X obj 557 232 mrpeach/unpackOSC;
#X obj 557 260 print OSC;
#X msg 318 112 send /app/test 1;
#X obj 719 273 print Status;
#X msg 557 176 status;
#X obj 557 205 mrpeach/udpreceive 12345;
#X msg 272 67 send /app/ispi 1;
#X msg 128 115 send /video/test 1;
#X msg 108 92 send /video/stop;
#X msg 614 75 connect 192.168.0.41 12344;
#X msg 640 162 port 12345;
#X connect 0 0 1 0;
#X connect 2 0 1 0;
#X connect 3 0 4 0;
#X connect 4 0 2 0;
#X connect 4 1 15 0;
#X connect 5 0 0 0;
#X connect 6 0 7 0;
#X connect 8 0 0 0;
#X connect 10 0 11 0;
#X connect 11 0 6 0;
#X connect 11 1 9 0;
#X connect 12 0 0 0;
#X connect 13 0 0 0;
#X connect 14 0 0 0;
#X connect 15 0 1 0;
#X connect 16 0 11 0;
