#N canvas 606 351 790 397 12;
#X obj 174 304 mrpeach/packOSC;
#X obj 174 360 mrpeach/udpsend;
#X msg 297 341 disconnect;
#X obj 298 300 tgl 15 0 empty empty CONNECT 17 7 0 10 #fcfcfc #000000
#000000 0 1;
#X obj 298 320 sel 0;
#X msg 403 137 send /app/quit 1;
#X obj 608 334 mrpeach/unpackOSC;
#X msg 419 160 send /app/test 1;
#X msg 608 278 status;
#X obj 608 307 mrpeach/udpreceive 12345;
#X msg 387 113 send /app/ispi 1;
#X msg 72 170 send /video/stop;
#X msg 678 278 port 12345;
#X obj 608 362 print OSC_received;
#X msg 36 120 send /video/status 0;
#X msg 55 146 send /video/playmain;
#X msg 210 117 send /rpi/startx 1;
#X msg 245 166 send /rpi/reboot 1;
#X msg 379 342 connect 192.168.0.41 12344;
#X msg 226 138 send /rpi/shutdown 1;
#X obj 110 242 t a;
#X obj 286 240 t a;
#X obj 462 240 t a;
#X obj 50 14 cnv 15 400 60 empty empty MUSEM 20 12 0 14 #e0e0e0 #404040
0;
#X msg 87 191 send /video/playwait;
#X connect 0 0 1 0;
#X connect 2 0 1 0;
#X connect 3 0 4 0;
#X connect 4 0 2 0;
#X connect 4 1 18 0;
#X connect 5 0 22 0;
#X connect 6 0 13 0;
#X connect 7 0 22 0;
#X connect 8 0 9 0;
#X connect 9 0 6 0;
#X connect 10 0 22 0;
#X connect 11 0 20 0;
#X connect 12 0 9 0;
#X connect 14 0 20 0;
#X connect 15 0 20 0;
#X connect 16 0 21 0;
#X connect 17 0 21 0;
#X connect 18 0 1 0;
#X connect 19 0 21 0;
#X connect 20 0 0 0;
#X connect 21 0 0 0;
#X connect 22 0 0 0;
#X connect 24 0 20 0;
